<mxfile host="app.diagrams.net" modified="2023-03-21T12:39:16.679Z" agent="5.0 (Windows NT 10.0; Win64; x64) AppleWebKit/537.36 (KHTML, like Gecko) Chrome/111.0.0.0 Safari/537.36" etag="eN8Sgc2qxyBTcas-SvZA" version="21.0.8" type="github">
  <diagram name="PÃ¡gina-1" id="M8ryPEPc1D8z2gy72PD5">
    <mxGraphModel dx="2074" dy="1124" grid="1" gridSize="10" guides="1" tooltips="1" connect="1" arrows="1" fold="1" page="1" pageScale="1" pageWidth="827" pageHeight="1169" math="0" shadow="0">
      <root>
        <mxCell id="0" />
        <mxCell id="1" parent="0" />
        <mxCell id="g10kCMMkQ84iI9tnQCoL-2" value="Visual Midia" style="swimlane;whiteSpace=wrap;html=1;" vertex="1" parent="1">
          <mxGeometry x="310" y="470" width="200" height="200" as="geometry">
            <mxRectangle x="310" y="470" width="110" height="30" as="alternateBounds" />
          </mxGeometry>
        </mxCell>
        <mxCell id="g10kCMMkQ84iI9tnQCoL-5" value="" style="shape=waypoint;sketch=0;size=6;pointerEvents=1;points=[];fillColor=none;resizable=0;rotatable=0;perimeter=centerPerimeter;snapToPoint=1;" vertex="1" parent="g10kCMMkQ84iI9tnQCoL-2">
          <mxGeometry y="65" width="20" height="20" as="geometry" />
        </mxCell>
        <mxCell id="g10kCMMkQ84iI9tnQCoL-6" value="Rank" style="text;html=1;align=center;verticalAlign=middle;resizable=0;points=[];autosize=1;strokeColor=none;fillColor=none;" vertex="1" parent="g10kCMMkQ84iI9tnQCoL-2">
          <mxGeometry x="15" y="85" width="50" height="30" as="geometry" />
        </mxCell>
        <mxCell id="g10kCMMkQ84iI9tnQCoL-3" value="" style="shape=waypoint;sketch=0;size=6;pointerEvents=1;points=[];fillColor=none;resizable=0;rotatable=0;perimeter=centerPerimeter;snapToPoint=1;" vertex="1" parent="g10kCMMkQ84iI9tnQCoL-2">
          <mxGeometry y="40" width="20" height="20" as="geometry" />
        </mxCell>
        <mxCell id="g10kCMMkQ84iI9tnQCoL-4" value="Id" style="text;html=1;align=center;verticalAlign=middle;resizable=0;points=[];autosize=1;strokeColor=none;fillColor=none;" vertex="1" parent="g10kCMMkQ84iI9tnQCoL-2">
          <mxGeometry x="15" y="35" width="30" height="30" as="geometry" />
        </mxCell>
        <mxCell id="g10kCMMkQ84iI9tnQCoL-8" value="Name" style="text;html=1;align=center;verticalAlign=middle;resizable=0;points=[];autosize=1;strokeColor=none;fillColor=none;" vertex="1" parent="g10kCMMkQ84iI9tnQCoL-2">
          <mxGeometry x="10" y="60" width="60" height="30" as="geometry" />
        </mxCell>
        <mxCell id="g10kCMMkQ84iI9tnQCoL-9" value="" style="shape=waypoint;sketch=0;size=6;pointerEvents=1;points=[];fillColor=none;resizable=0;rotatable=0;perimeter=centerPerimeter;snapToPoint=1;" vertex="1" parent="g10kCMMkQ84iI9tnQCoL-2">
          <mxGeometry y="90" width="20" height="20" as="geometry" />
        </mxCell>
      </root>
    </mxGraphModel>
  </diagram>
</mxfile>
